<svg id="Capa_1" data-name="Capa 1" xmlns="http://www.w3.org/2000/svg" viewBox="0 0 500 500"><defs><style>.cls-1{fill:#1d1d1b;}</style></defs><path class="cls-1" d="M216.91,263.83q.65-27,1.2-53.93.15-6.93.31-13.86c.06-2.39.11-4.78.17-7.17a36.16,36.16,0,0,1,.37-6.82c1.1-5.1,7.11-4.21,11.1-4.24L245,177.7l29.89-.23,14.95-.11,7.47-.05a16.93,16.93,0,0,1,5.54.52c2.29.77,3.25,2.68,3.33,5s-.19,4.66-.3,7l-.77,14.93-1.54,29.86-3.08,59.71-.39,7.46.63-.62-57.27-.56-16.86-.17a.63.63,0,0,0,0,1.25l57.27.56,16.86.17a.64.64,0,0,0,.62-.63l3.21-62.2,1.6-31.1L307,193q.19-3.87.4-7.72c.1-1.93.24-4-.65-5.81-1.58-3.2-5.52-3.47-8.65-3.46-5.23,0-10.46.08-15.7.12l-31.13.23-15.44.11-7.73.06a22.78,22.78,0,0,0-6,.46c-4.16,1.19-4.56,5.18-4.65,8.89q-.18,7.38-.34,14.76-.63,27.8-1.23,55.59l-.18,7.56a.63.63,0,0,0,1.25,0Z"/><path class="cls-1" d="M285.92,205.23a347.89,347.89,0,0,1-50.32,1c-.81,0-.8,1.21,0,1.25a347.89,347.89,0,0,0,50.32-1c.79-.07.8-1.32,0-1.25Z"/><path class="cls-1" d="M283.78,223.08l-48.18-2c-.8,0-.8,1.22,0,1.25l48.18,2c.81,0,.8-1.22,0-1.25Z"/><path class="cls-1" d="M288.08,238.69a215.81,215.81,0,0,0-56.37-3.75c-.8.05-.81,1.3,0,1.25a214.18,214.18,0,0,1,56,3.71c.78.16,1.12-1.05.33-1.21Z"/><path class="cls-1" d="M228.47,302.36a40.27,40.27,0,0,0-11.91,4.06.63.63,0,0,0-.12,1,100.82,100.82,0,0,1,11.24,16.24.63.63,0,0,0,1.16-.31c.78-13.31-2.05-26.46-5.67-39.19-3.73-13.14-8-26.12-12.48-39-2.49-7.26-5-14.5-7.58-21.74a.63.63,0,0,0-1.14-.14c-1.41,2-4.9.67-6.94,1.29-2.31.7-2.72,2.59-2.14,4.73,1.82,6.7,3.83,13.36,5.74,20,3.74,13.07,7.37,26.17,11.27,39.19,2.16,7.2,4.5,14.35,7.3,21.33.3.74,1.51.42,1.21-.33-4.85-12.08-8.31-24.65-11.89-37.15Q201,253,195.46,233.68c-.5-1.78-1.12-3.55-1.51-5.35-.46-2.06,1.05-2.76,2.83-2.84,2.25-.11,4.76.48,6.27-1.64l-1.14-.15c4.49,12.78,9,25.56,13.17,38.45,4.14,12.68,8.36,25.49,10.84,38.62a92.79,92.79,0,0,1,1.67,22.56l1.16-.32a101.67,101.67,0,0,0-11.43-16.49l-.13,1a39.46,39.46,0,0,1,11.61-3.94c.79-.14.46-1.34-.33-1.2Z"/></svg>