<svg id="Capa_1" data-name="Capa 1" xmlns="http://www.w3.org/2000/svg" viewBox="0 0 500 500"><path d="M224.36,297.3a8.74,8.74,0,0,0-4.47,8.43,10,10,0,0,0,6.29,8.16c7.78,3.32,16.81-2.71,18.94-10.38a10.74,10.74,0,0,0-2.63-10.66,8.46,8.46,0,0,0-4.82-2.37c-2.35-.3-4.68.43-7,.22a6.11,6.11,0,0,1-2.69-.81,4.14,4.14,0,0,1-1.79-3.44c-.2-2.52-.05-5.11-.06-7.63l0-8.11a58.05,58.05,0,0,1,.17-7,10.82,10.82,0,0,1,2.73-6.41,12.77,12.77,0,0,1,5.55-3.12c4.89-1.5,10.17-1.39,15.24-1.59,8.2-.33,17.73-1.55,22.86-8.81,4.58-6.48,4-15.58-.27-22-4.53-6.89-12.49-11.19-20.55-12.32-8.43-1.19-17.57,1.51-22,9.29A16.09,16.09,0,0,0,228.2,230c.4,2.2,1.05,4.59.43,6.81a5.63,5.63,0,0,1-4.51,3.84,24,24,0,0,1-6.16.28,28.85,28.85,0,0,1-6.54-.82,10.75,10.75,0,0,1-7.95-8.48,24.28,24.28,0,0,1,1-11.77,46.12,46.12,0,0,1,4.92-10.93,48.82,48.82,0,0,1,17.31-16.78,45.9,45.9,0,0,1,24-5.93,48.49,48.49,0,0,1,24.57,7.43,46.2,46.2,0,0,1,16.6,18.65c7.27,14.73,7.14,34.08-3.84,47a28.25,28.25,0,0,1-9.31,7.29,32.15,32.15,0,0,1-14.27,2.64c-4.83-.06-9.6-.91-14.42-1.08-3.63-.12-7.93.57-9.84,4.07-1.36,2.5-1.33,6,1.31,7.64.56.35,1.07-.54.51-.89-3.45-2.15-1.21-7.26,1.68-8.73,4.08-2.06,9.31-.81,13.63-.41,9,.84,18.32.73,26-4.74,13.06-9.35,16.82-27.32,13.42-42.29a49.59,49.59,0,0,0-10.95-21.57,47.23,47.23,0,0,0-20.45-13.48A49.54,49.54,0,0,0,241,185.9a47.24,47.24,0,0,0-21.32,9.83,49.59,49.59,0,0,0-14.2,18.51c-2.79,6.39-5.26,15-1.5,21.55,2,3.45,5.57,5.16,9.39,5.76a47.11,47.11,0,0,0,6.06.44,18.91,18.91,0,0,0,5.56-.5,6.72,6.72,0,0,0,4.1-3,8.8,8.8,0,0,0,.7-5.52,57,57,0,0,1-1-6.47,14,14,0,0,1,1.36-6.16c4.12-8.71,14.24-11.36,23.1-9.6,8.14,1.61,16.13,6.56,19.72,14.26s1.87,17.36-5.27,22.18c-8.2,5.55-18.65,3.91-27.94,5-3.9.45-8.1,1.31-11.1,4-3.23,2.93-3.62,7.36-3.64,11.46,0,5.28,0,10.56.06,15.83,0,2-.24,4.36,1,6.08a6,6,0,0,0,4.27,2.15c2.48.28,5-.58,7.43-.18a7.82,7.82,0,0,1,5,3.26c2.69,3.76,2,8.63-.45,12.32a14.51,14.51,0,0,1-11.25,6.7c-4.11.13-8.55-2.29-9.84-6.37a7.83,7.83,0,0,1,3.62-9.24c.59-.3.07-1.19-.52-.89Z"/></svg>