<?xml version="1.0" encoding="utf-8"?>
<!-- Generator: Adobe Illustrator 24.0.1, SVG Export Plug-In . SVG Version: 6.00 Build 0)  -->
<svg version="1.1" id="Capa_1" xmlns="http://www.w3.org/2000/svg" xmlns:xlink="http://www.w3.org/1999/xlink" x="0px" y="0px"
	 viewBox="0 0 500 500" style="enable-background:new 0 0 500 500;" xml:space="preserve">
<style type="text/css">
	.st0{fill:#1D1D1B;}
	.st1{fill:#FFFFFF;}
	.st2{stroke:#000000;stroke-width:0.5;stroke-miterlimit:10;}
</style>
<path class="st0" d="M368.8,200.3l-95.1-10.1c-0.3,0-0.7,0.2-0.7,0.6l-9.4,89.2c0,0.3,0.2,0.6,0.6,0.7l107,11.3
	c0.3,0,0.7-0.2,0.7-0.6l10.9-102.8c0-0.3-0.2-0.7-0.6-0.7l-120-12.7c-0.3,0-0.7,0.2-0.7,0.6l-14.3,134.8c0,0.3,0.2,0.7,0.6,0.7
	l132.1,14c0.3,0,0.7-0.2,0.7-0.6l12.3-116.5c0-0.3-0.3-0.6-0.6-0.6c-0.3,0-0.5,0.2-0.6,0.5l-12.3,116.5l0.7-0.6l-132.1-14l0.6,0.7
	l14.3-134.8l-0.7,0.6l120,12.7l-0.6-0.7l-10.9,102.8l0.7-0.6l-107-11.3l0.6,0.7l9.4-89.2l-0.7,0.6l95.1,10.1c0.3,0,0.6-0.3,0.6-0.6
	C369.3,200.6,369.1,200.4,368.8,200.3z"/>
<path class="st0" d="M231.9,188.8L137.3,203c-0.3,0.1-0.6,0.4-0.5,0.7l13.4,88.6c0.1,0.3,0.4,0.6,0.7,0.5l106.4-16.1
	c0.3-0.1,0.6-0.4,0.5-0.7l-15.4-102.3c-0.1-0.3-0.4-0.6-0.7-0.5l-119.4,18c-0.3,0.1-0.6,0.4-0.5,0.7l20.2,134
	c0.1,0.3,0.4,0.6,0.7,0.5l131.4-19.8c0.3-0.1,0.6-0.4,0.5-0.7l-17.5-115.9c-0.1-0.3-0.4-0.5-0.8-0.4c-0.3,0.1-0.5,0.3-0.5,0.6
	l17.5,115.9l0.5-0.7l-131.4,19.8l0.7,0.5l-20.2-134l-0.5,0.7l119.4-18l-0.7-0.5l15.4,102.3l0.5-0.7l-106.4,16.1l0.7,0.5l-13.4-88.6
	l-0.5,0.7l94.6-14.3c0.3-0.1,0.5-0.4,0.4-0.8C232.5,189,232.2,188.8,231.9,188.8z"/>
<rect x="178.5" y="173.4" class="st1" width="141.6" height="153.3"/>
<path class="st0" d="M292.3,195.4h-95.6c-0.3,0-0.6,0.3-0.6,0.6v89.6c0,0.3,0.3,0.6,0.6,0.6h107.6c0.3,0,0.6-0.3,0.6-0.6V182.2
	c0-0.3-0.3-0.6-0.6-0.6H183.6c-0.3,0-0.6,0.3-0.6,0.6v135.5c0,0.3,0.3,0.6,0.6,0.6h132.9c0.3,0,0.6-0.3,0.6-0.6V200.6
	c0-0.3-0.4-0.6-0.7-0.5c-0.3,0-0.5,0.3-0.5,0.5v117.2l0.6-0.6H183.6l0.6,0.6V182.2l-0.6,0.6h120.7l-0.6-0.6v103.4l0.6-0.6H196.6
	l0.6,0.6V196l-0.6,0.6h95.6c0.3,0,0.6-0.4,0.5-0.7C292.8,195.6,292.5,195.4,292.3,195.4z"/>
<path class="st2" d="M207.9,262.8c-3.1-7-0.2-15.9,5.8-20.4c1.6-1.2,3.5-2,5.4-2.5c2.6-0.7,5.4-0.8,8-1.2c4.1-0.6,8.7-2,11-5.7
	c1-1.6,1.3-3.6,0.8-5.5c-0.6-1.9-1.9-3.5-3.7-4.4c-3.6-1.7-8.2,0.5-9.3,4.3c-1.2,4.1,1.8,8.2,5.2,10.1c4.4,2.5,9.7,2.3,14.5,3.2
	c3.9,0.8,8.8,2.6,10.3,6.7c1.1,3.1,0.2,7.8-3.4,8.6c-2,0.5-4.1-0.6-5.4-2.1c-1.4-1.7-1.9-4-1.2-6.1c1.4-4.9,6.3-7.3,10.9-8.1
	c4.2-0.7,8.5-0.5,12.5-1.7c3.3-1,6.6-3.4,6.9-7.1c0.2-3.5-2.3-6.9-5.5-8.1c-3.2-1.2-6.5,0.5-8,3.3c-1.5,2.7-1.6,6.3,0.4,8.8
	c2.7,3.3,7.5,3.1,11.4,3.2c2.2,0,4.4,0.1,6.6,0.7c2.2,0.6,4.2,1.7,6,3.2c5.6,4.7,7.5,12.5,4.6,19.2c-0.1,0.3,0.3,0.6,0.5,0.3
	c1.9-4.3,1.9-9.2,0.1-13.5c-1.7-4-4.9-7.2-8.9-8.9c-1.9-0.8-4-1.3-6.1-1.4c-2.2-0.1-4.4,0-6.6-0.2c-2.1-0.1-4.3-0.6-6-1.9
	c-1.3-1-2.2-2.6-2.4-4.3c-0.4-3.1,1.2-6.7,4.2-8c3.5-1.5,7.3,1.1,8.7,4.3c0.8,1.7,0.8,3.6,0.1,5.3c-0.8,1.7-2.2,3-4,3.8
	c-3.6,1.7-7.8,1.7-11.8,2.1c-4.5,0.4-9.4,1.7-12.3,5.4c-1.4,1.7-2.1,3.7-2.1,5.9c0.1,2,1,3.8,2.5,5.1c1.4,1.2,3.3,1.9,5.1,1.4
	c1.5-0.4,2.8-1.4,3.5-2.9c1.6-3.1,0.8-6.9-1.6-9.4c-3.1-3.1-7.7-4-11.9-4.6c-4.8-0.6-10.2-1-13.7-4.6c-1.5-1.5-2.7-3.6-2.7-5.7
	c0-2.2,1.1-4.2,3-5.3c1.8-1.2,4.1-1.4,6-0.4c1.9,1,3.3,2.9,3.5,5.1c0.5,4.4-3.8,7.5-7.5,8.7c-4.8,1.5-10,0.8-14.7,2.9
	c-6.7,2.9-10.9,10.5-10.4,17.8c0.1,1.8,0.6,3.5,1.3,5.1C207.6,263.4,208.1,263.1,207.9,262.8L207.9,262.8z"/>
</svg>
