<svg id="Capa_1" data-name="Capa 1" xmlns="http://www.w3.org/2000/svg" viewBox="0 0 500 500"><path d="M150.77,297.55c-7.33-16.7-.59-37.74,13.87-48.4a36.64,36.64,0,0,1,12.88-6c6.25-1.59,12.72-1.93,19.09-2.79,9.78-1.33,20.52-4.66,26-13.61a16.19,16.19,0,0,0,1.85-13.06,17.1,17.1,0,0,0-8.89-10.35c-8.53-4-19.36,1.15-22,10.13-2.89,9.75,4.23,19.44,12.38,24.05,10.41,5.9,22.92,5.41,34.34,7.66,9.35,1.84,20.79,6.05,24.37,15.84,2.7,7.39.56,18.4-8.18,20.47-4.85,1.14-9.81-1.35-12.91-5a15.67,15.67,0,0,1-2.95-14.54c3.21-11.66,14.88-17.36,25.9-19.32,9.86-1.75,20.06-1.12,29.74-4,7.89-2.35,15.77-8,16.29-16.92.47-8.21-5.34-16.48-13-19.25s-15.3,1.1-19,7.92c-3.5,6.39-3.81,15.05,1,20.88,6.41,7.8,17.81,7.43,26.93,7.49,5.27,0,10.55.2,15.65,1.68a39.9,39.9,0,0,1,14.12,7.49,39.1,39.1,0,0,1,10.8,45.6c-.32.73.76,1.37,1.08.63a41,41,0,0,0,.25-32.08,40.48,40.48,0,0,0-21.16-21.12,42.49,42.49,0,0,0-14.4-3.29c-5.17-.3-10.36,0-15.54-.38-5-.34-10.19-1.36-14.3-4.48a14.66,14.66,0,0,1-5.67-10.11c-.85-7.37,2.87-15.9,10-18.87,8.4-3.52,17.26,2.52,20.61,10.21a15.43,15.43,0,0,1,.2,12.64,19.33,19.33,0,0,1-9.4,9c-8.62,4.13-18.61,4-27.91,4.92-10.73,1-22.18,3.95-29.11,12.86a21.82,21.82,0,0,0-4.91,13.93,16.52,16.52,0,0,0,5.93,12c3.34,2.82,7.81,4.4,12.16,3.37a12.71,12.71,0,0,0,8.3-6.79c3.75-7.39,1.87-16.44-3.83-22.23-7.3-7.44-18.19-9.57-28.11-10.85-11.34-1.47-24.08-2.36-32.59-11-3.57-3.61-6.3-8.42-6.4-13.6a14.68,14.68,0,0,1,7-12.64,14.35,14.35,0,0,1,14.27-1,15.75,15.75,0,0,1,8.39,12c1.13,10.43-8.94,17.79-17.77,20.57-11.33,3.56-23.74,2-34.78,6.77-16,6.87-25.93,25-24.58,42.15a37.27,37.27,0,0,0,3,12.11c.33.74,1.4.1,1.08-.63Z"/></svg>