<svg id="Capa_1" data-name="Capa 1" xmlns="http://www.w3.org/2000/svg" viewBox="0 0 500 500"><path d="M262.54,307.57c-1.76-.23-3.51-.44-5.26-.69-12.5-1.73-24.93-3.78-37.09-7.23-2.43-.69-4.79-1.62-7.17-2.5a6.68,6.68,0,0,1-3.94-4.2,22.5,22.5,0,0,1-1.3-7.53,41,41,0,0,1,2.55-16,8.83,8.83,0,0,1,2.56-4.16,6.89,6.89,0,0,0,2.16-3.55,42.64,42.64,0,0,0,2.64-11c.11-1.21.32-1.26,1.44-.92,8.3,2.51,16.76,3.77,25.35,2A33.11,33.11,0,0,0,263.11,241a19.41,19.41,0,0,0,4.27-8.78c.56-2.51,1.33-5,2-7.48.19-.73.23-1.5.42-2.23.32-1.17.71-2.33,1-3.56-.64,1.18-1.36,2.31-1.88,3.54-1.29,3-2.42,6.05-3.71,9.05a42.25,42.25,0,0,1-6.28,10.61A23.78,23.78,0,0,1,243,250.62a53.27,53.27,0,0,1-20.33-1.69,17.48,17.48,0,0,1-2.06-.74c-4-1.58-5.89-4.61-5.89-8.88A34.56,34.56,0,0,1,216.92,228a54.09,54.09,0,0,1,11.18-19.4A24.79,24.79,0,0,1,247,200.33c1.37,0,1.8-.14,2.45-.89a5,5,0,0,0-.61-.07c-1.77,0-3.55,0-5.32-.08-1.07,0-1.51-.62-1.1-1.59a7.08,7.08,0,0,1,1.3-2.12c1.55-1.65,3.12-3.3,4.83-4.79,2-1.74,6.09-1.94,8.37-.53a1.62,1.62,0,0,1,.75,1.05c0,.29-.5.62-.83.88s-.68.39-1,.63c-1.93,1.58-3.12,3.74-4.68,5.8,1.31.1,2.47.21,3.63.27.16,0,.37-.17.5-.31,4.32-4.76,9.67-6.15,15.85-4.87a3.68,3.68,0,0,0,1.65,0,8.74,8.74,0,0,1,5.81.55,20.36,20.36,0,0,1,8.88,7.33,45.8,45.8,0,0,1,6.7,15.59,107.31,107.31,0,0,1,3,21.91,171.88,171.88,0,0,1-2.49,38.37,59.21,59.21,0,0,1-3,11.34,27.4,27.4,0,0,1-3.89,6.68,7.47,7.47,0,0,1-1.52,1.45c-1,.67-1.87.33-2-.83a10.55,10.55,0,0,1,.1-3c.65-4,1.52-7.9,2-11.88a247.54,247.54,0,0,0,1.74-39.63,145.32,145.32,0,0,0-2.09-21,58.91,58.91,0,0,0-5.2-16.76,19.75,19.75,0,0,0-6.46-7.72c-.29-.19-.58-.37-.88-.53-1.51-.83-1.76-.89-2.95.38a43.82,43.82,0,0,0-3,3.89c-.48.62-.89,1.29-1.39,1.89a1.51,1.51,0,0,1-1.76.41c-2.63-.76-5.28-1.47-7.93-2.14-.41-.1-1.12-.54-1.26.34-.11.73.63.58,1,.67,2.64.62,5.33,1.08,7.94,1.79,3,.82,6,1.79,8.95,2.81a8.9,8.9,0,0,1,2.58,1.6,2.4,2.4,0,0,1,.56,3.42c-.62,1.11-1.25,2.22-2,3.51l.92-.42a3,3,0,0,1,4.29,1.45,17.52,17.52,0,0,1,1.53,4.58c.78,5,1.37,10,2.07,15a4.26,4.26,0,0,0,.51,1.14,18.94,18.94,0,0,1,1.33,3,39.22,39.22,0,0,1,.74,10c-.1,7.58-.84,15.12-1.55,22.65-.44,4.66-.86,9.31-1.23,14-.15,1.79,0,3.61-.2,5.39-.7,6.35-4.08,10.95-9.57,14-1.7,1-3.53,1.67-5.35,2.52.22,0,.45.1.68.12,7.28.59,14.56,1.27,21.86,1.76q15.14,1,30.3.55c6.39-.19,12.78-.65,19.17-1a6.83,6.83,0,0,1,1,0,.51.51,0,0,1,.37.29.52.52,0,0,1-.29.38,2.63,2.63,0,0,1-.7.09,351.45,351.45,0,0,1-54.39.2c-6.48-.45-12.95-1.15-19.43-1.71a6.53,6.53,0,0,0-1.92.14,64.94,64.94,0,0,1-22.67.7,68.55,68.55,0,0,1-16.35-4.17c-6.26-2.45-12.84-3.83-19.42-5.15a230,230,0,0,0-25.73-3.7,138.53,138.53,0,0,0-20.27-.44c-.38,0-.94.32-1.07-.35a2.16,2.16,0,0,1,1-.38,149.18,149.18,0,0,1,26,1,232.51,232.51,0,0,1,28.45,5,99.49,99.49,0,0,1,13.16,4.05,70.5,70.5,0,0,0,34.63,3.2,3.63,3.63,0,0,0,.45-.1Zm7-81.19c-.45,1.89-.94,3.78-1.35,5.68a21.67,21.67,0,0,1-2.24,6.24,24,24,0,0,1-7,7.69c-5.87,4.25-12.29,7-19.66,7.31a61.67,61.67,0,0,1-17.69-2c-1-.26-2-.57-3.15-.9-.21,4.74-1.7,9.1-3.3,13.37,1.69-.16,3.29-.41,4.9-.45a35.58,35.58,0,0,1,4.84.23,91.33,91.33,0,0,1,17.67,4.07,27.21,27.21,0,0,1,9.08,4.82c4.16,3.42,6.87,7.67,7,13.18.14,4.94-1.64,9-6,11.61-3.33,1.94-6.88,1.78-10.46.67a41,41,0,0,0-4.81-1.36c-3.78-.71-7.58-1.23-11.35-1.92a25.87,25.87,0,0,1-10-3.79c-2.63-1.79-4.89-3.94-5.45-7.24a19.36,19.36,0,0,1-.18-4.75,50.41,50.41,0,0,1,2.93-11.9l.39-1.18-.23-.11c-.48.7-1,1.37-1.43,2.11a25.64,25.64,0,0,0-2.6,7.85,39.33,39.33,0,0,0-.3,14.55,8.36,8.36,0,0,0,5.94,7,148.13,148.13,0,0,0,15.86,4.33c9.74,2.14,19.61,3.55,29.47,5.05a17,17,0,0,0,11.3-1.81c.39-.21.79-.41,1.17-.63,4.8-2.77,8-6.73,8.93-12.29.34-2.1.18-4.27.37-6.4.58-6.81,1.31-13.61,1.81-20.43.45-6.2.78-12.4.94-18.61a51.82,51.82,0,0,0-.72-7.62,9.37,9.37,0,0,0-.68-2l-.21.07c0,.28,0,.57,0,.85.26,3.62.58,7.23.75,10.86a24.74,24.74,0,0,1-1.6,10.83c-1.75,4.21-5,6.39-9.23,6.13-2.82-.17-4.7-1.73-5-4.55a22.56,22.56,0,0,1,3.17-14,3.39,3.39,0,0,1-1.79-2.34,4.11,4.11,0,0,1,1.27-4.07,17.52,17.52,0,0,1,3.93-2.78c2.41-1.16,4.94-2.05,7.51-3.08a1.36,1.36,0,0,0,0-.27c-.38-3.4-.72-6.8-1.17-10.19a31.47,31.47,0,0,0-2-8.28c-.89-2.09-2.31-2.49-4.27-1.34-2.34,1.37-2.7,3.88-3.69,6,.5-.46.91-1,1.38-1.47,1.54-1.52,3.46-1.7,5-.27a8.7,8.7,0,0,1,2.68,8.48,3.2,3.2,0,0,1-2.87,2.63C274.79,230.44,271,228.59,269.52,226.38ZM254.46,199.6c-1.24-.06-2.48-.14-3.73-.17-.16,0-.36.17-.48.32a3.52,3.52,0,0,1-3,1.34,18.14,18.14,0,0,0-2.66,0,25,25,0,0,0-16.22,8.28,55.31,55.31,0,0,0-11.85,22.69,23,23,0,0,0-.82,9.07,6.92,6.92,0,0,0,3.67,5.51,16.67,16.67,0,0,0,3.36,1.46A52.59,52.59,0,0,0,242.31,250a23.62,23.62,0,0,0,18.06-11,61.79,61.79,0,0,0,5.76-11.71,40.26,40.26,0,0,1,3.7-8.09c.86-1.28,2-2.38,2.78-3.68,1.14-1.81,2.11-3.72,3.14-5.6a1.39,1.39,0,0,0-.27-1.79,7.13,7.13,0,0,0-2-1.47,51.76,51.76,0,0,0-6.31-2.29c-3.73-1-7.52-1.75-11.28-2.64C254.37,201.3,254.33,201.19,254.46,199.6Zm-33.73,64.31-5.1.7a1.32,1.32,0,0,0-1.18,1.05c-.58,1.9-1.26,3.77-1.83,5.66a38,38,0,0,0-1.7,9,10.13,10.13,0,0,0,4,8.89,19.12,19.12,0,0,0,1.64,1.2,29.31,29.31,0,0,0,10.95,3.8c3.75.66,7.53,1.19,11.26,1.92,1.91.38,3.73,1.21,5.64,1.59a10.74,10.74,0,0,0,13-8,14.33,14.33,0,0,0-1.43-10.9,21.14,21.14,0,0,0-9.75-8.85A54.19,54.19,0,0,0,236,266.53,71.55,71.55,0,0,0,220.73,263.91Zm52.68-69.59a52,52,0,0,1,4.26,3.58c3,3.08,4.75,6.9,6.15,10.89a91.41,91.41,0,0,1,4.29,21.2,228.69,228.69,0,0,1,.21,39.34A152.51,152.51,0,0,1,285,293.58a7.57,7.57,0,0,0,0,2.33c0,.54.42.73.88.37a8,8,0,0,0,1.29-1.24,27.31,27.31,0,0,0,4.52-8.44,101.1,101.1,0,0,0,3.72-19.1,167.32,167.32,0,0,0,.36-37,81.42,81.42,0,0,0-4.11-19.08A32.81,32.81,0,0,0,284.31,199a16.45,16.45,0,0,0-8-4.69A5.73,5.73,0,0,0,273.41,194.32ZM283.3,248c-.27-3.56-.58-7.51-.85-11.47-.05-.7-.38-.78-.92-.62s-.89.3-1.33.46a27.6,27.6,0,0,0-7.41,3.48,9,9,0,0,0-2.15,2.32,2.94,2.94,0,0,0,.75,4,1.11,1.11,0,0,0,1.41,0,11.59,11.59,0,0,1,7.5-1.94c.36,0,.69.43,1,.65-.22.3-.39.72-.69.86a14.05,14.05,0,0,1-7.07,1.7,2.21,2.21,0,0,0-2.31,1.26,5.59,5.59,0,0,0-.65,1.32c-.52,1.73-1.06,3.45-1.44,5.2a13,13,0,0,0-.1,6.43,3.93,3.93,0,0,0,3.47,3.06,10.14,10.14,0,0,0,3.11-.09c3.12-.6,4.93-2.76,6.1-5.53C283.19,255.67,283.39,252.05,283.3,248Zm-3.62-22.21a9.07,9.07,0,0,0-2.24-5.87c-1.41-1.53-3.12-1.62-4.45,0a22.31,22.31,0,0,0-2.47,4,2.84,2.84,0,0,0,.8,3.39,9.49,9.49,0,0,0,5.33,2,2.6,2.6,0,0,0,2.83-2.17A11.17,11.17,0,0,0,279.68,225.8ZM257,191.25a7.16,7.16,0,0,0-8,.12c-1.55,1.32-3,2.79-4.37,4.24a9.43,9.43,0,0,0-1.35,1.91c-.49.85-.36,1,.6,1,1.8,0,3.6,0,5.4.06a1.57,1.57,0,0,0,1.48-.73C252.56,195.48,254,192.68,257,191.25ZM256,199l.75.18c2.2.56,4.41,1.05,6.59,1.69s2.14.7,3.37-1.25a17.15,17.15,0,0,1,4.09-5s0-.13,0-.2C265.23,192.87,258.47,195.45,256,199Zm24.31,46c-1.63-.51-5.77.52-6.71,1.65A16.11,16.11,0,0,0,280.31,245.08Z"/></svg>