<svg id="Capa_1" data-name="Capa 1" xmlns="http://www.w3.org/2000/svg" viewBox="0 0 500 500"><path d="M207.42,206.23l1.42-10c.1-.71-1-1-1.09-.3-4.76,25.79-5.35,52.09-5.89,78.24-.21,10.67-.09,22.24,7,30.93,6,7.31,15.34,10.85,24.4,12.45,11.27,2,23.08,1.56,34.4.2a149.78,149.78,0,0,0,18.91-3.49c5-1.26,10.21-3,13.58-7.08,3.56-4.34,4.86-10.25,6.05-15.61a123.74,123.74,0,0,0,2.6-18.19,192.67,192.67,0,0,0-1.49-38c-1.56-12.42-3.66-24.85-6.22-37.11-1-5-2.79-9.88-7.05-13-3.75-2.75-8.53-3.64-13.08-3.94-2.43-.16-4.88-.14-7.32-.08a.55.55,0,0,0-.56.56L274.69,198a143.94,143.94,0,0,1,1.15,15.09c0,4.65-.82,9.46-3.55,13.34-2.37,3.36-6.18,6.11-10.43,6.12-7.52,0-11.09-7.51-12.51-13.82a64.92,64.92,0,0,1-1.28-11.21c-.26-5.31-.48-10.62-.79-15.93a9,9,0,0,0-1.44-5.1c-1.21-1.51-3.09-1.84-4.91-2-5.22-.54-10.45-1-15.68-1.52-4.4-.42-9.79-1.72-13.75.93-3.31,2.23-4.91,6.18-6.4,9.72a182.94,182.94,0,0,0-13.77,56.86,157.7,157.7,0,0,0,.13,28.58c.87,8.26,2.79,16.67,7.35,23.72a36.12,36.12,0,0,0,3.66,4.7c.5.53,1.3-.27.8-.8-5.87-6.36-8.72-14.7-10.08-23.1-1.49-9.18-1.5-18.65-1.05-27.91a181.71,181.71,0,0,1,12.35-57.57c1.56-4,3-8.67,6-11.85,3.61-3.85,8.95-2.71,13.64-2.25l15.73,1.52c2.42.23,4.93.44,5.81,3.11.7,2.15.55,4.64.66,6.88.25,5.08.44,10.17.77,15.24a49.8,49.8,0,0,0,1.61,10.16c1.65,5.87,5.22,11.93,11.84,12.71,8.22,1,14.32-6.83,15.8-14.09.93-4.62.63-9.38.2-14-.5-5.27-1-10.53-1.56-15.79l-.77-7.87-.57.57c4.77-.12,9.69-.13,14.31,1.23a15.52,15.52,0,0,1,10.6,9.68,45.29,45.29,0,0,1,1.88,7.44c.55,2.93,1.09,5.87,1.63,8.8,1.11,6.09,2.17,12.19,3.08,18.31a229.89,229.89,0,0,1,2.9,36.59,137.15,137.15,0,0,1-1.4,18.44,92.86,92.86,0,0,1-3.84,16.89,20.06,20.06,0,0,1-4.18,7.4,18.17,18.17,0,0,1-6.74,4.25c-5.43,2.09-11.37,3.15-17.07,4.12a135.64,135.64,0,0,1-35.19,1.69c-9.11-.85-18.77-3.15-26-9a26.74,26.74,0,0,1-8.38-11.9c-1.83-5.19-2.25-10.73-2.31-16.19-.06-6,.17-11.93.32-17.88.16-6.36.35-12.72.65-19.07a376.43,376.43,0,0,1,3.4-37.79q.69-4.59,1.53-9.17l-1.09-.3-1.42,10c-.1.72,1,1,1.09.3Z"/></svg>