<svg id="Capa_1" data-name="Capa 1" xmlns="http://www.w3.org/2000/svg" viewBox="0 0 500 500"><defs><style>.cls-1{fill:#1d1d1b;}</style></defs><path class="cls-1" d="M192,306.18c-3.33-13.54-.3-28,7.14-39.72a52,52,0,0,1,14-14.7c6.68-4.66,14.32-7.1,22.25-8.69,7.71-1.56,16-2.07,23.32-5.19,6.35-2.71,10.42-8.12,13.26-14.25,3.35-7.25,3.94-15.78-.64-22.68a23.56,23.56,0,0,0-16.75-10,26.75,26.75,0,0,0-18.88,4.74A24.49,24.49,0,0,0,226,212.25a26.16,26.16,0,0,0,4.61,19c3.3,4.42,8.15,7.14,13.23,9.07,11.82,4.49,24.68,5.18,36.68,9a36,36,0,0,1,15.89,9.93,47.41,47.41,0,0,1,10,18.44,72.49,72.49,0,0,1,3,21.66c0,2.29-.41,4.46-2.83,5.32-2,.72-4.36.66-6.48.82q-7,.54-14.05.93-29.41,1.65-58.89.9-7-.18-14.07-.49c-1,0-1,1.57,0,1.61q29.1,1.29,58.25.27,14.39-.52,28.76-1.6c3-.23,7.15,0,9.41-2.42s1.56-7,1.41-10c-.69-13.45-4.62-27.72-14.3-37.55-8.83-9-21.16-11.07-33-13.45a131.08,131.08,0,0,1-18.43-4.62c-5.44-2-10.7-4.83-13.95-9.78A25,25,0,0,1,228.3,209a22.53,22.53,0,0,1,13.75-15,24.93,24.93,0,0,1,20,.88,19.77,19.77,0,0,1,10.66,20.76,32.9,32.9,0,0,1-5.07,12.25,21.76,21.76,0,0,1-6.54,6.83c-6.26,4-14.39,4.58-21.51,5.85-8.09,1.44-16.22,3.21-23.45,7.28a51.51,51.51,0,0,0-15,12.89A55.15,55.15,0,0,0,189,297.2a49.68,49.68,0,0,0,1.37,9.41c.25,1,1.81.58,1.56-.43Z"/></svg>