<svg id="Capa_1" data-name="Capa 1" xmlns="http://www.w3.org/2000/svg" viewBox="0 0 500 500"><defs><style>.cls-1{fill:#1d1d1b;}</style></defs><path class="cls-1" d="M217.27,272.72c5.52,8.86,11.22,18,19.49,24.62,7.61,6.06,17.4,9.83,27.18,7.81,9.59-2,18.1-8.5,25.15-15a91.49,91.49,0,0,0,17.36-22c9.56-16.93,14.41-38.43,8.75-57.45a42.78,42.78,0,0,0-15.52-22.59,33.86,33.86,0,0,0-25.21-5.79,37.12,37.12,0,0,0-22.83,13,42.2,42.2,0,0,0-9.22,25.09c-.16,4.28.11,9,1.63,13.09,1.24,3.29,4.15,6.92,8.1,5.45,3.77-1.41,5-6.14,5.33-9.69a33.94,33.94,0,0,0-2.28-15.63c-3.64-9.47-10.73-17.63-18.34-24.2a38.64,38.64,0,0,0-12-7.39,25.37,25.37,0,0,0-14.21-.76c-20.33,4.62-28.75,27.77-28.15,46.48.67,21,10.88,40.14,24.26,55.86a216.57,216.57,0,0,0,22.31,22.21c7.49,6.57,16,12.89,26.28,13.6a22.36,22.36,0,0,0,13.14-3,.62.62,0,0,0-.63-1.07c-8.56,5.17-19.14,2.65-27.19-2.26a83.5,83.5,0,0,1-11.85-9.17c-3.6-3.21-7.14-6.48-10.57-9.87-13.93-13.74-26.32-29.77-31.72-48.86-5.09-18-4-40.37,9.8-54.4,6.61-6.72,16.5-10.66,25.89-8.28,9.19,2.34,16.64,9.77,22.63,16.76,6.49,7.57,11.59,16.91,11.52,27.13,0,3.62-.59,10.11-4.86,11.42-4.56,1.4-6.55-4.79-7.18-8.08-3.29-17.38,4.9-36.41,21.51-43.63a34.66,34.66,0,0,1,25-1.24c8.37,2.94,15.1,9.48,19.36,17.14,9.33,16.8,6.95,38.35,0,55.54a88.3,88.3,0,0,1-33.66,40.78A38.11,38.11,0,0,1,263,304.06a27.65,27.65,0,0,1-14.08-1.27c-9.49-3.32-16.79-10.62-22.59-18.59-2.84-3.91-5.41-8-8-12.11-.43-.68-1.51-.06-1.08.63Z"/></svg>