<?xml version="1.0" standalone="no"?>
<!DOCTYPE svg PUBLIC "-//W3C//DTD SVG 20010904//EN"
 "http://www.w3.org/TR/2001/REC-SVG-20010904/DTD/svg10.dtd">
<svg version="1.0" xmlns="http://www.w3.org/2000/svg"
 width="874.000000pt" height="858.000000pt" viewBox="0 0 874.000000 858.000000"
 preserveAspectRatio="xMidYMid meet">

<g transform="translate(0.000000,858.000000) scale(0.100000,-0.100000)"
fill="#000000" stroke="none">
<path d="M3975 8560 c-49 -5 -110 -10 -135 -13 -25 -3 -104 -13 -177 -21 -72
-9 -138 -18 -145 -21 -8 -3 -61 -14 -118 -24 -426 -75 -915 -250 -1325 -475
-334 -183 -641 -412 -894 -667 -302 -305 -522 -611 -707 -984 -101 -204 -125
-259 -185 -426 -122 -341 -205 -717 -244 -1104 -13 -138 -35 -560 -35 -685 1
-303 35 -638 97 -940 14 -69 27 -136 30 -150 9 -45 74 -262 102 -345 135 -386
360 -796 585 -1067 94 -112 120 -142 210 -240 104 -115 342 -329 490 -442 105
-80 332 -234 530 -361 121 -77 147 -89 192 -93 49 -4 56 -2 84 26 60 60 33
192 -53 255 -17 13 -59 37 -92 52 -483 223 -959 660 -1280 1174 -348 557 -564
1242 -615 1951 -31 427 15 1009 109 1385 27 109 71 266 89 315 11 30 33 93 49
140 141 398 373 811 637 1130 71 85 352 372 436 444 67 58 223 175 325 243
465 312 1051 528 1665 612 295 41 398 46 825 45 324 -2 415 -6 675 -34 195
-21 545 -88 673 -129 34 -11 112 -36 172 -55 112 -35 148 -49 335 -127 79 -33
315 -155 380 -197 245 -156 332 -220 480 -348 435 -379 743 -802 977 -1344
175 -403 303 -900 329 -1275 3 -44 10 -109 14 -145 12 -94 4 -728 -10 -835
-47 -344 -95 -584 -166 -818 -260 -862 -749 -1565 -1424 -2049 -348 -249 -815
-458 -1260 -562 -59 -14 -304 -58 -390 -70 -350 -50 -872 -50 -1245 -1 -377
49 -723 122 -1069 224 -76 23 -141 41 -143 41 -8 0 0 37 47 210 140 509 222
804 280 1010 21 74 64 227 95 340 31 113 74 266 95 340 21 74 61 218 89 320
29 102 71 255 95 340 56 196 132 470 186 670 23 85 62 225 85 310 24 85 47
173 51 195 3 22 17 81 31 130 14 50 49 182 78 295 29 113 63 237 76 276 25 80
21 118 -13 128 -13 3 -70 -5 -128 -19 -441 -103 -671 -161 -1035 -260 -528
-144 -686 -183 -772 -192 -67 -7 -118 21 -133 75 -8 25 -10 288 -8 828 l3 791
30 48 c21 33 47 57 85 79 49 28 63 31 135 30 70 0 94 -6 185 -42 58 -23 213
-83 345 -133 132 -50 348 -133 480 -184 132 -52 258 -100 280 -108 87 -31 295
-110 390 -149 215 -86 229 -52 110 268 -73 196 -193 525 -273 749 -44 122
-125 371 -167 510 -14 50 -45 148 -67 218 -45 141 -45 170 2 194 32 16 1894
19 1952 3 71 -20 84 -72 47 -195 -79 -264 -164 -513 -236 -695 -14 -36 -42
-110 -63 -165 -20 -55 -61 -161 -89 -235 -125 -322 -211 -582 -211 -636 0 -66
19 -78 82 -49 18 8 94 37 168 65 229 87 553 219 995 405 365 154 425 175 575
205 210 42 286 -4 310 -186 7 -51 10 -353 8 -842 l-3 -764 -33 -29 c-47 -42
-84 -39 -390 36 -147 36 -341 83 -432 105 -468 111 -649 154 -790 190 -86 22
-171 42 -190 44 -19 3 -70 14 -112 26 -88 24 -146 23 -161 -2 -11 -17 -9 -26
144 -599 27 -102 49 -194 49 -204 0 -10 20 -93 45 -184 52 -196 141 -540 271
-1046 25 -99 68 -265 95 -370 27 -104 69 -266 93 -360 71 -273 98 -376 118
-450 10 -38 20 -80 23 -92 4 -24 70 -280 135 -523 123 -460 118 -434 101 -445
-27 -17 -228 -11 -316 9 -88 20 -332 100 -410 135 -93 41 -272 161 -328 220
-89 93 -140 210 -187 430 -22 99 -22 113 -11 235 13 151 40 290 70 359 27 63
94 162 175 261 71 87 136 209 157 296 14 60 18 276 7 355 -15 100 -91 227
-268 445 -66 81 -146 210 -172 276 -25 62 -42 198 -34 278 14 156 19 184 47
272 45 142 59 268 56 504 -4 233 -11 262 -108 470 -83 179 -85 246 -18 456 17
53 32 105 35 117 2 11 27 91 55 176 55 167 73 208 242 571 193 412 228 492
272 617 54 151 69 223 55 274 -19 69 -20 69 -341 69 l-286 0 -31 -92 c-17 -51
-56 -165 -86 -252 -31 -88 -54 -161 -52 -163 2 -2 52 100 112 227 l109 230
260 -2 260 -3 -1 -70 c-2 -114 -77 -305 -332 -845 -71 -151 -146 -320 -166
-375 -76 -205 -88 -235 -110 -267 -14 -22 -31 -34 -50 -36 -56 -7 -112 73
-231 331 -38 81 -70 145 -72 143 -2 -1 15 -59 37 -127 182 -559 210 -655 225
-764 13 -101 17 -114 98 -311 75 -181 81 -215 82 -414 0 -148 -4 -191 -23
-279 -13 -58 -32 -126 -42 -151 -48 -122 -69 -375 -40 -500 8 -36 14 -68 13
-71 -4 -13 88 -183 134 -248 26 -36 85 -112 130 -169 147 -182 200 -289 209
-421 14 -181 -50 -350 -202 -546 -144 -185 -207 -340 -235 -585 -14 -126 -8
-212 26 -350 72 -289 234 -480 520 -612 128 -60 327 -130 433 -153 48 -11 81
-23 79 -29 -5 -16 -675 -20 -842 -6 -269 23 -605 82 -785 139 -172 54 -193 62
-304 116 -86 42 -104 56 -157 119 -163 193 -235 416 -195 606 20 94 73 203
130 267 38 42 231 173 256 173 21 0 171 123 198 162 114 167 159 382 149 712
-6 191 -14 242 -82 526 -41 170 -49 298 -26 415 30 146 105 374 166 500 60
124 135 315 149 380 43 200 57 313 58 460 0 226 -24 346 -127 630 -26 72 -67
184 -90 250 -48 134 -98 270 -155 420 -21 55 -41 111 -45 125 -4 14 -41 108
-83 210 -168 418 -192 484 -192 546 0 49 21 77 69 93 50 16 481 15 481 -1 0
-13 -14 -88 -69 -358 -16 -80 -28 -146 -26 -148 1 -2 11 21 20 50 18 53 51
139 146 376 27 68 49 129 49 135 0 9 -75 11 -302 9 -262 -2 -308 -5 -337 -20
-52 -25 -74 -63 -79 -130 -6 -78 14 -151 84 -308 53 -118 111 -265 198 -499
127 -339 163 -436 207 -560 165 -464 188 -558 196 -800 10 -306 -42 -520 -211
-865 -104 -213 -156 -408 -163 -613 -6 -145 1 -209 42 -402 60 -280 68 -334
73 -472 4 -120 0 -166 -23 -310 -43 -265 -91 -340 -304 -480 -64 -42 -149 -98
-190 -125 -95 -62 -152 -135 -188 -243 -24 -71 -27 -95 -27 -210 0 -187 36
-311 137 -462 80 -120 214 -219 372 -273 190 -66 255 -84 401 -115 227 -48
349 -64 589 -80 374 -26 856 -11 1045 31 41 9 85 19 98 21 13 3 39 20 58 38
42 40 43 65 10 172 -14 43 -31 105 -40 138 -8 33 -33 130 -55 215 -75 292
-186 740 -240 970 -5 19 -24 98 -44 175 -20 77 -56 226 -82 330 -25 105 -66
267 -91 360 -25 94 -47 184 -50 200 -3 17 -22 95 -44 175 -22 80 -48 181 -59
225 -40 156 -91 351 -120 455 -16 58 -44 161 -61 230 -18 69 -41 157 -52 195
-11 39 -20 96 -21 128 -3 78 19 97 106 97 62 0 375 -68 642 -140 77 -20 230
-59 340 -85 110 -26 252 -63 315 -81 161 -47 210 -55 328 -55 81 0 112 4 149
21 54 24 95 64 120 117 17 36 18 97 18 963 0 918 0 925 -21 976 -62 151 -176
208 -366 184 -99 -13 -138 -25 -298 -93 -278 -118 -381 -161 -445 -187 -38
-15 -236 -96 -440 -179 -220 -90 -380 -151 -395 -149 -23 3 -25 7 -24 48 0 28
18 91 46 165 25 66 82 230 126 365 45 135 108 322 141 415 56 160 83 234 194
545 67 186 71 203 51 245 -33 71 16 68 -1229 76 -637 4 -1131 3 -1160 -2 -74
-13 -104 -28 -120 -60 -21 -40 -19 -64 14 -165 39 -118 171 -481 276 -759 31
-82 76 -204 100 -270 80 -223 106 -290 132 -345 40 -87 53 -130 55 -182 2 -97
-32 -100 -248 -17 -88 33 -193 73 -234 89 -41 15 -142 53 -225 85 -82 32 -184
70 -225 85 -41 15 -104 39 -140 53 -62 25 -152 58 -360 134 -52 20 -126 47
-165 61 -87 32 -223 39 -286 14 -52 -20 -101 -76 -130 -148 l-24 -59 0 -915 0
-915 23 -55 c27 -65 70 -116 116 -135 90 -38 240 -26 455 34 76 22 151 42 167
45 16 2 191 45 389 94 764 190 848 205 879 160 24 -35 20 -71 -28 -212 -24
-72 -56 -176 -71 -231 -15 -55 -40 -145 -56 -199 -16 -54 -29 -104 -29 -110 0
-6 -18 -69 -40 -141 -44 -145 -189 -651 -227 -790 -13 -49 -39 -142 -58 -205
-18 -63 -56 -196 -85 -295 -28 -99 -70 -247 -94 -330 -47 -161 -125 -432 -182
-635 -48 -169 -128 -449 -171 -595 -19 -66 -50 -174 -68 -240 -18 -66 -48
-163 -65 -215 -44 -131 -33 -194 42 -240 33 -20 345 -124 498 -165 666 -182
1384 -243 1995 -170 72 9 146 18 165 20 71 9 370 68 470 94 362 94 683 223
1040 419 113 62 370 237 510 348 161 128 390 355 519 514 51 63 100 124 108
135 37 45 159 224 211 309 141 232 288 544 367 781 89 268 151 525 186 770 48
339 60 530 62 980 1 325 -2 392 -21 555 -12 102 -24 192 -27 200 -2 8 -6 33
-10 55 -19 134 -98 455 -152 615 -120 356 -304 717 -506 995 -270 369 -565
658 -942 922 -248 173 -621 372 -895 476 -497 188 -886 277 -1440 327 -122 11
-624 11 -755 0z"/>
</g>
</svg>
